<svg viewBox="0 0 1254 1254" version="1.1" xmlns="http://www.w3.org/2000/svg" desc="Created with imagetracer.js version 1.2.6" ><path fill="rgb(0,0,0)" stroke="rgb(0,0,0)" stroke-width="0" opacity="0" d="M 0 0 L 1254 0 L 1254 1254 L 0 1254 L 0 0 Z M 270 68 Q 257 70 249 76 Q 236 84 233 101 L 233 108 L 235 116 L 249 140 Q 250 149 247 154 Q 241 161 230 163 L 210 163 L 209 162 L 189 161 L 174 158 L 167 158 L 145 154 L 139 154 L 138 153 L 125 153 L 123 154 L 120 157 L 118 163 L 117 257 L 116 258 L 116 277 L 113 284 L 107 289 L 97 289 L 76 276 L 67 274 L 54 276 L 47 280 L 36 292 L 31 303 L 29 314 L 30 330 L 37 345 Q 44 356 60 359 L 74 358 L 99 344 Q 105 343 109 346 L 115 354 L 117 360 L 117 370 L 118 371 L 118 448 L 117 449 L 117 483 L 118 486 L 123 489 L 445 489 L 447 488 L 450 485 L 450 364 L 453 356 L 463 348 Q 471 347 476 349 Q 483 356 493 360 Q 498 359 500 361 L 512 357 Q 520 351 524 341 L 527 326 L 524 309 L 516 295 L 505 289 L 491 290 L 474 301 Q 463 303 459 299 Q 452 294 450 284 L 450 159 L 446 153 L 432 153 L 422 155 L 414 155 L 413 156 L 405 156 L 404 157 L 387 158 L 386 159 L 378 159 L 377 160 L 357 161 L 356 162 L 343 162 L 342 163 L 322 163 L 314 161 L 307 157 L 304 153 L 302 146 L 304 135 L 312 124 Q 316 117 318 108 L 317 96 L 310 83 Q 298 67 270 68 Z M 967 68 L 957 70 L 943 78 L 935 87 L 931 97 L 931 112 Q 935 123 942 132 L 944 141 L 943 150 L 940 155 Q 935 160 927 162 L 906 162 L 905 161 L 869 158 L 868 157 L 832 154 L 831 153 L 821 153 L 820 152 L 803 152 L 799 154 L 795 161 L 795 286 L 791 295 Q 788 299 782 301 L 772 300 L 758 290 L 754 289 Q 739 287 734 294 Q 725 302 722 317 L 722 334 L 728 349 Q 733 357 744 360 L 757 359 L 768 351 L 775 348 Q 783 347 787 350 L 791 355 L 795 365 L 795 483 L 796 486 L 801 489 L 1124 489 L 1128 486 L 1127 443 L 1126 442 L 1126 431 L 1125 430 L 1124 406 L 1123 405 L 1123 392 L 1122 391 L 1122 365 L 1123 360 L 1127 353 L 1135 348 L 1143 348 Q 1153 352 1160 360 L 1171 364 Q 1179 364 1184 360 Q 1191 355 1195 346 L 1199 333 L 1199 323 L 1200 322 L 1197 305 L 1191 294 L 1189 291 Q 1183 282 1172 280 L 1159 282 L 1143 290 Q 1135 291 1132 288 L 1125 280 L 1126 234 L 1127 233 L 1127 219 L 1128 218 L 1129 194 L 1130 193 L 1130 181 L 1131 180 L 1131 159 L 1129 154 L 1123 152 L 1096 155 L 1095 156 L 1088 156 L 1087 157 L 1080 157 L 1079 158 L 1072 158 L 1071 159 L 1054 160 L 1053 161 L 1042 161 L 1041 162 L 1016 162 L 1004 157 Q 997 153 996 145 L 998 135 L 1006 122 L 1010 112 L 1010 96 L 1004 84 Q 997 74 986 70 L 978 68 L 967 68 Z M 465 152 L 463 153 L 458 160 L 458 281 L 460 289 L 466 293 L 471 293 L 486 283 L 495 280 Q 508 280 516 285 Q 530 296 534 318 Q 536 343 525 356 Q 517 366 503 369 L 496 369 L 488 367 L 470 356 Q 463 355 461 358 L 458 369 L 458 484 L 463 489 L 590 489 L 594 487 L 597 483 L 597 475 Q 590 466 586 455 L 586 440 L 594 423 L 604 416 L 618 411 Q 637 410 648 418 Q 658 426 661 442 L 660 457 L 650 476 Q 649 482 652 485 L 659 489 L 783 489 L 785 488 L 787 485 L 787 366 L 784 359 L 781 356 L 774 357 Q 766 366 753 369 L 741 368 L 731 363 Q 718 353 714 335 L 714 315 Q 716 302 723 294 Q 730 284 744 280 L 758 281 L 777 293 L 784 291 L 787 285 L 787 157 L 782 152 L 688 152 L 679 154 L 673 157 Q 668 160 667 166 L 668 173 L 677 189 L 678 200 L 679 201 Q 678 216 670 225 Q 663 232 653 237 L 644 240 L 632 241 L 631 242 L 619 241 L 607 238 L 592 229 Q 593 226 590 227 Q 584 220 581 209 Q 580 198 582 191 Q 585 181 591 176 L 593 170 Q 594 161 590 159 L 583 154 L 572 152 L 465 152 Z M 621 416 Q 619 418 615 417 L 605 422 L 597 430 L 593 439 Q 595 444 592 446 L 593 454 L 601 466 L 605 476 L 605 482 L 603 488 Q 599 495 590 497 L 465 497 L 463 498 L 458 505 L 458 618 L 454 626 L 447 630 Q 438 631 434 629 L 421 620 L 411 616 Q 398 615 392 621 L 382 634 L 378 650 Q 377 670 388 680 Q 393 686 404 688 Q 412 689 417 686 L 431 676 L 438 673 Q 447 672 452 676 L 458 686 L 458 810 L 459 812 L 464 814 L 592 814 L 600 818 L 605 828 L 604 838 L 593 856 L 591 864 Q 591 878 598 885 L 610 893 L 622 896 L 633 895 L 642 891 Q 652 884 655 870 L 655 863 L 652 853 L 644 841 L 642 834 L 642 829 L 644 823 Q 648 817 656 814 L 783 814 L 785 813 L 788 809 L 788 779 L 787 778 L 787 687 L 790 680 L 800 673 L 812 674 L 823 683 L 831 687 L 845 687 L 851 684 Q 861 676 865 661 Q 867 648 864 640 Q 861 630 855 624 Q 850 618 842 616 Q 833 615 829 617 L 813 629 L 806 631 Q 799 631 795 628 Q 788 624 787 616 L 787 535 L 788 534 L 788 504 L 786 499 L 782 497 L 659 497 L 648 491 L 643 483 L 644 471 Q 652 462 655 449 L 655 443 L 653 436 L 646 424 L 634 417 L 621 416 Z M 126 497 L 121 499 L 117 505 L 117 625 L 121 633 L 128 636 L 136 634 L 149 623 L 160 619 Q 173 619 180 625 Q 190 634 193 651 Q 196 677 184 690 Q 178 699 165 701 L 152 699 L 141 692 L 139 689 L 130 685 L 122 687 L 117 695 L 117 704 L 116 705 L 117 707 L 116 711 L 117 714 L 117 807 L 119 811 L 125 813 L 444 813 L 447 812 L 450 808 L 450 704 L 451 703 L 451 693 L 448 683 L 441 680 L 433 683 L 424 690 L 414 694 L 399 694 L 387 688 L 376 675 L 372 658 Q 372 634 383 622 Q 390 613 403 610 L 412 610 L 419 612 L 440 624 L 447 622 L 450 617 L 450 503 L 449 501 L 446 498 L 127 498 L 126 497 Z M 1121 497 L 1120 498 L 801 498 L 799 499 L 795 505 L 795 617 L 796 619 L 802 623 L 810 622 Q 818 613 832 609 Q 849 608 857 616 L 866 628 L 871 642 L 871 662 Q 869 674 862 682 L 849 692 L 841 694 L 831 694 L 824 692 L 808 681 L 799 682 L 793 692 L 794 798 L 795 799 L 795 809 L 802 813 L 1121 813 L 1127 811 L 1129 809 L 1128 755 L 1127 754 L 1127 728 L 1126 727 L 1126 697 L 1128 689 Q 1131 683 1139 681 L 1148 683 L 1164 695 L 1170 697 Q 1183 699 1190 693 L 1200 682 L 1205 670 L 1207 659 L 1207 651 L 1205 641 L 1197 625 Q 1191 616 1180 613 L 1171 613 L 1164 615 L 1145 628 Q 1136 629 1133 626 L 1127 619 L 1125 611 L 1125 566 L 1126 565 L 1126 547 L 1127 546 L 1127 526 L 1128 525 L 1128 502 L 1121 497 Z M 122 821 L 120 822 L 117 826 L 118 880 L 119 881 L 119 894 L 121 905 L 121 915 L 122 916 L 122 929 L 123 930 Q 125 948 118 957 L 113 960 L 103 959 L 89 949 L 80 946 L 75 946 L 64 951 L 54 962 L 48 979 Q 46 1004 57 1017 Q 62 1024 72 1027 Q 80 1028 86 1026 L 105 1013 Q 114 1012 118 1017 Q 122 1021 123 1028 L 122 1064 L 119 1080 L 116 1109 L 115 1110 L 115 1119 L 114 1120 L 115 1129 L 123 1133 L 170 1136 L 171 1137 L 201 1139 L 202 1140 L 212 1140 L 213 1141 L 224 1141 L 234 1138 L 238 1133 L 236 1126 Q 230 1121 228 1113 Q 226 1099 233 1094 Q 243 1083 261 1080 L 280 1080 L 285 1081 L 301 1088 Q 310 1094 313 1108 L 311 1119 L 304 1128 L 302 1133 L 303 1138 L 308 1142 L 318 1145 L 395 1145 L 396 1144 L 399 1145 L 401 1144 L 442 1144 L 447 1142 L 450 1138 L 450 1020 L 455 1009 L 465 1003 L 474 1004 L 485 1012 L 496 1016 Q 505 1016 511 1011 L 517 1004 L 523 987 L 523 974 L 521 965 L 514 954 Q 509 948 502 946 L 491 947 L 477 957 L 472 959 L 465 959 L 456 955 L 450 943 L 450 826 L 445 821 L 122 821 Z M 464 821 L 462 822 L 458 828 L 458 941 L 460 947 L 466 951 Q 471 952 474 949 Q 480 942 491 938 L 504 938 L 515 943 L 524 954 L 528 962 L 531 974 L 531 987 L 529 997 L 520 1013 Q 513 1022 500 1024 L 489 1023 L 484 1021 L 469 1011 L 463 1013 L 459 1018 L 458 1023 L 458 1141 L 459 1144 L 464 1146 L 561 1146 L 575 1141 L 579 1134 L 577 1124 L 569 1111 L 567 1101 Q 567 1086 573 1079 Q 584 1063 607 1059 L 626 1059 L 631 1060 Q 643 1064 652 1071 Q 661 1078 664 1092 L 664 1107 L 653 1129 L 654 1137 L 662 1143 L 676 1146 L 782 1146 L 785 1145 L 787 1142 L 787 826 L 786 824 L 783 821 L 658 821 Q 651 822 649 828 L 649 836 L 657 849 L 661 862 Q 662 878 655 887 Q 647 900 628 903 Q 608 904 598 895 L 586 881 L 584 873 Q 583 860 586 853 L 596 838 L 598 832 L 597 827 L 591 821 L 464 821 Z M 801 821 L 799 822 L 795 828 L 795 1138 L 797 1142 L 801 1144 L 866 1145 L 867 1146 L 900 1148 L 901 1149 L 917 1149 L 924 1146 L 927 1142 Q 928 1133 924 1129 L 924 1119 L 929 1109 Q 938 1098 954 1095 Q 977 1093 988 1103 Q 995 1108 997 1118 L 997 1128 L 992 1139 L 994 1146 L 1003 1151 Q 1007 1150 1009 1152 L 1034 1151 L 1044 1149 L 1061 1148 L 1062 1147 L 1070 1147 L 1071 1146 L 1111 1143 L 1120 1141 L 1123 1138 L 1124 1134 L 1125 1103 L 1126 1102 L 1126 1065 L 1125 1064 L 1125 1039 L 1124 1038 L 1125 1025 L 1127 1020 Q 1130 1015 1137 1013 L 1142 1013 L 1148 1015 Q 1155 1024 1169 1027 Q 1181 1027 1187 1021 Q 1193 1015 1197 1007 L 1201 991 L 1200 975 Q 1198 964 1192 958 Q 1186 949 1175 946 Q 1166 945 1162 948 L 1149 957 L 1142 960 L 1133 959 L 1130 957 L 1125 951 L 1123 943 L 1125 902 L 1126 901 L 1126 889 L 1127 888 L 1127 873 L 1128 872 L 1128 855 L 1129 854 L 1129 826 L 1128 824 L 1124 821 L 801 821 Z " /><path fill="rgb(255,255,255)" stroke="rgb(255,255,255)" stroke-width="0" opacity="1" d="M 269.5 68 Q 298 67 310 82.5 L 317 95.5 L 318 107.5 Q 316.5 117 312 123.5 L 304 134.5 L 302 145.5 L 304 152.5 L 307 157 L 313.5 161 L 321.5 163 L 341.5 163 L 342.5 162 L 355.5 162 L 356.5 161 L 376.5 160 L 377.5 159 L 385.5 159 L 386.5 158 L 403.5 157 L 404.5 156 L 412.5 156 L 413.5 155 L 421.5 155 L 431.5 153 L 445.5 153 L 450 158.5 L 450 283.5 Q 451.8 293.8 458.5 299 Q 463.2 302.8 473.5 301 L 490.5 290 L 504.5 289 L 516 295 L 524 308.5 L 527 325.5 L 524 340.5 Q 520.2 351.2 511.5 357 L 499.5 361 Q 498 358.5 492.5 360 Q 482.5 356 475.5 349 Q 470.7 346.8 462.5 348 L 453 355.5 L 450 363.5 L 450 484.5 L 446.5 488 L 444.5 489 L 122.5 489 L 118 485.5 L 117 482.5 L 117 448.5 L 118 447.5 L 118 370.5 L 117 369.5 L 117 359.5 L 115 353.5 L 108.5 346 Q 105.2 343.3 98.5 344 L 73.5 358 L 59.5 359 Q 44.4 355.6 37 344.5 L 30 329.5 L 29 313.5 L 31 302.5 L 36 291.5 L 46.5 280 L 53.5 276 L 66.5 274 L 75.5 276 L 96.5 289 L 106.5 289 L 113 283.5 L 116 276.5 L 116 257.5 L 117 256.5 L 118 162.5 L 120 156.5 L 122.5 154 L 124.5 153 L 137.5 153 L 138.5 154 L 144.5 154 L 166.5 158 L 173.5 158 L 188.5 161 L 208.5 162 L 209.5 163 L 229.5 163 Q 240.8 160.8 247 153.5 Q 250.3 148.8 249 139.5 L 235 115.5 L 233 107.5 L 233 100.5 Q 236.5 84 248.5 76 Q 257.3 70.3 269.5 68 Z " /><path fill="rgb(255,255,255)" stroke="rgb(255,255,255)" stroke-width="0" opacity="1" d="M 966.5 68 L 977.5 68 L 985.5 70 Q 997.1 74.4 1004 83.5 L 1010 95.5 L 1010 111.5 L 1006 121.5 L 998 134.5 L 996 144.5 Q 997.5 153 1003.5 157 L 1015.5 162 L 1040.5 162 L 1041.5 161 L 1052.5 161 L 1053.5 160 L 1070.5 159 L 1071.5 158 L 1078.5 158 L 1079.5 157 L 1086.5 157 L 1087.5 156 L 1094.5 156 L 1095.5 155 L 1122.5 152 L 1129 154 L 1131 158.5 L 1131 179.5 L 1130 180.5 L 1130 192.5 L 1129 193.5 L 1128 217.5 L 1127 218.5 L 1127 232.5 L 1126 233.5 L 1125 279.5 L 1131.5 288 Q 1134.8 291.2 1142.5 290 L 1158.5 282 L 1171.5 280 Q 1183.3 282.2 1189 290.5 L 1191 293.5 L 1197 304.5 L 1200 321.5 L 1199 322.5 L 1199 332.5 L 1195 345.5 Q 1191 354.5 1183.5 360 Q 1178.8 363.8 1170.5 364 L 1159.5 360 Q 1152.6 352.4 1142.5 348 L 1134.5 348 L 1127 352.5 L 1123 359.5 L 1122 364.5 L 1122 390.5 L 1123 391.5 L 1123 404.5 L 1124 405.5 L 1125 429.5 L 1126 430.5 L 1126 441.5 L 1127 442.5 L 1128 485.5 L 1123.5 489 L 800.5 489 L 796 485.5 L 795 482.5 L 795 364.5 L 791 354.5 L 786.5 350 Q 782.8 346.7 774.5 348 L 767.5 351 L 756.5 359 L 743.5 360 Q 733.5 356.5 728 348.5 L 722 333.5 L 722 316.5 Q 724.9 302.4 733.5 294 Q 739.3 287.3 753.5 289 L 757.5 290 L 771.5 300 L 781.5 301 Q 788 299.5 791 294.5 L 795 285.5 L 795 160.5 L 798.5 154 L 802.5 152 L 819.5 152 L 820.5 153 L 830.5 153 L 831.5 154 L 867.5 157 L 868.5 158 L 904.5 161 L 905.5 162 L 926.5 162 Q 935.1 160.1 940 154.5 L 943 149.5 L 944 140.5 L 942 131.5 Q 934.5 123.5 931 111.5 L 931 96.5 L 935 86.5 L 942.5 78 L 956.5 70 L 966.5 68 Z " /><path fill="rgb(255,255,255)" stroke="rgb(255,255,255)" stroke-width="0" opacity="1" d="M 464.5 152 L 571.5 152 L 582.5 154 L 590 158.5 Q 594.1 161.4 593 169.5 L 591 175.5 Q 585 181.5 582 190.5 Q 579.6 197.6 581 208.5 Q 583.8 219.9 590 227 Q 592.7 225.9 592 228.5 L 606.5 238 L 618.5 241 L 630.5 242 L 631.5 241 L 643.5 240 L 652.5 237 Q 662.9 232.4 670 224.5 Q 678.2 216.2 679 200.5 L 678 199.5 L 677 188.5 L 668 172.5 L 667 165.5 Q 668.3 159.8 672.5 157 L 678.5 154 L 687.5 152 L 781.5 152 L 787 156.5 L 787 284.5 L 783.5 291 L 776.5 293 L 757.5 281 L 743.5 280 Q 730 283.5 723 293.5 Q 716.3 301.8 714 314.5 L 714 334.5 Q 717.5 353.5 730.5 363 L 740.5 368 L 752.5 369 Q 765.7 365.7 773.5 357 L 780.5 356 L 784 358.5 L 787 365.5 L 787 484.5 L 784.5 488 L 782.5 489 L 658.5 489 L 652 484.5 Q 649.2 481.8 650 475.5 L 660 456.5 L 661 441.5 Q 658.1 425.9 647.5 418 Q 637.3 409.7 617.5 411 L 603.5 416 L 594 423 L 586 439.5 L 586 454.5 Q 589.5 466.5 597 474.5 L 597 482.5 L 593.5 487 L 589.5 489 L 462.5 489 L 458 483.5 L 458 368.5 L 461 358 Q 463.3 355.4 469.5 356 L 487.5 367 L 495.5 369 L 502.5 369 Q 517.3 365.8 525 355.5 Q 535.6 342.6 534 317.5 Q 530.4 295.6 515.5 285 Q 508 279.5 494.5 280 L 485.5 283 L 470.5 293 L 465.5 293 L 460 288.5 L 458 280.5 L 458 159.5 L 462.5 153 L 464.5 152 Z " /><path fill="rgb(255,255,255)" stroke="rgb(255,255,255)" stroke-width="0" opacity="1" d="M 125.5 497 L 126.5 498 L 445.5 498 L 449 500.5 L 450 502.5 L 450 616.5 L 446.5 622 L 439.5 624 L 418.5 612 L 411.5 610 L 402.5 610 Q 390.1 613.1 383 621.5 Q 371.8 633.8 372 657.5 L 376 674.5 L 386.5 688 L 398.5 694 L 413.5 694 L 423.5 690 L 432.5 683 L 440.5 680 L 448 683 L 451 692.5 L 451 702.5 L 450 703.5 L 450 807.5 L 446.5 812 L 443.5 813 L 124.5 813 L 119 811 L 117 806.5 L 117 713.5 L 116 710.5 L 117 706.5 L 116 704.5 L 117 703.5 L 117 694.5 L 121.5 687 L 129.5 685 L 139 689 L 140.5 692 L 151.5 699 L 164.5 701 Q 177.7 698.7 184 689.5 Q 195.5 677 193 650.5 Q 190.1 633.9 179.5 625 Q 172.7 618.8 159.5 619 L 148.5 623 L 135.5 634 L 127.5 636 L 121 633 L 117 624.5 L 117 504.5 L 120.5 499 L 125.5 497 Z " /><path fill="rgb(255,255,255)" stroke="rgb(255,255,255)" stroke-width="0" opacity="1" d="M 1120.5 497 L 1128 501.5 L 1128 524.5 L 1127 525.5 L 1127 545.5 L 1126 546.5 L 1126 564.5 L 1125 565.5 L 1125 610.5 L 1127 618.5 L 1132.5 626 Q 1136.2 629.3 1144.5 628 L 1163.5 615 L 1170.5 613 L 1179.5 613 Q 1191.1 615.9 1197 624.5 L 1205 640.5 L 1207 650.5 L 1207 658.5 L 1205 669.5 L 1200 681.5 L 1189.5 693 Q 1183.2 698.7 1169.5 697 L 1163.5 695 L 1147.5 683 L 1138.5 681 Q 1131.3 682.8 1128 688.5 L 1126 696.5 L 1126 726.5 L 1127 727.5 L 1127 753.5 L 1128 754.5 L 1129 808.5 L 1126.5 811 L 1120.5 813 L 801.5 813 L 795 808.5 L 795 798.5 L 794 797.5 L 793 691.5 L 798.5 682 L 807.5 681 L 823.5 692 L 830.5 694 L 840.5 694 L 848.5 692 L 862 681.5 Q 868.6 673.6 871 661.5 L 871 641.5 L 866 627.5 L 856.5 616 Q 849 607.5 831.5 609 Q 817.9 612.9 809.5 622 L 801.5 623 L 796 618.5 L 795 616.5 L 795 504.5 L 798.5 499 L 800.5 498 L 1119.5 498 L 1120.5 497 Z " /><path fill="rgb(255,255,255)" stroke="rgb(255,255,255)" stroke-width="0" opacity="1" d="M 121.5 821 L 444.5 821 L 450 825.5 L 450 942.5 L 456 955 L 464.5 959 L 471.5 959 L 476.5 957 L 490.5 947 L 501.5 946 Q 509.3 948.3 514 953.5 L 521 964.5 L 523 973.5 L 523 986.5 L 517 1003.5 L 510.5 1011 Q 505.1 1015.6 495.5 1016 L 484.5 1012 L 473.5 1004 L 464.5 1003 L 455 1008.5 L 450 1019.5 L 450 1137.5 L 446.5 1142 L 441.5 1144 L 400.5 1144 L 398.5 1145 L 395.5 1144 L 394.5 1145 L 317.5 1145 L 307.5 1142 L 303 1137.5 L 302 1132.5 L 304 1127.5 L 311 1118.5 L 313 1107.5 Q 310.5 1094 300.5 1088 L 284.5 1081 L 279.5 1080 L 260.5 1080 Q 242.8 1082.8 233 1093.5 Q 226.2 1098.7 228 1112.5 Q 230.4 1120.6 236 1125.5 L 238 1132.5 L 233.5 1138 L 223.5 1141 L 212.5 1141 L 211.5 1140 L 201.5 1140 L 200.5 1139 L 170.5 1137 L 169.5 1136 L 122.5 1133 L 115 1128.5 L 114 1119.5 L 115 1118.5 L 115 1109.5 L 116 1108.5 L 119 1079.5 L 122 1063.5 L 123 1027.5 Q 121.8 1020.8 117.5 1017 Q 114.1 1011.9 104.5 1013 L 85.5 1026 Q 80.4 1028.4 71.5 1027 Q 62.2 1023.8 57 1016.5 Q 45.7 1004.3 48 978.5 L 54 961.5 L 63.5 951 L 74.5 946 L 79.5 946 L 88.5 949 L 102.5 959 L 112.5 960 L 118 957 Q 125.1 948.3 123 929.5 L 122 928.5 L 122 915.5 L 121 914.5 L 121 904.5 L 119 893.5 L 119 880.5 L 118 879.5 L 117 825.5 L 119.5 822 L 121.5 821 Z " /><path fill="rgb(255,255,255)" stroke="rgb(255,255,255)" stroke-width="0" opacity="1" d="M 463.5 821 L 590.5 821 L 597 826.5 L 598 831.5 L 596 837.5 L 586 852.5 Q 582.6 860.1 584 872.5 L 586 880.5 L 597.5 895 Q 607.6 903.9 627.5 903 Q 646.5 900 655 886.5 Q 661.8 877.8 661 861.5 L 657 848.5 L 649 835.5 L 649 827.5 Q 651.4 822.4 657.5 821 L 782.5 821 L 786 823.5 L 787 825.5 L 787 1141.5 L 784.5 1145 L 781.5 1146 L 675.5 1146 L 661.5 1143 L 654 1136.5 L 653 1128.5 L 664 1106.5 L 664 1091.5 Q 660.6 1078.4 651.5 1071 Q 642.9 1063.6 630.5 1060 L 625.5 1059 L 606.5 1059 Q 584 1063 573 1078.5 Q 566.8 1086.3 567 1100.5 L 569 1110.5 L 577 1123.5 L 579 1133.5 L 574.5 1141 L 560.5 1146 L 463.5 1146 L 459 1143.5 L 458 1140.5 L 458 1022.5 L 459 1017.5 L 462.5 1013 L 468.5 1011 L 483.5 1021 L 488.5 1023 L 499.5 1024 Q 513.2 1021.7 520 1012.5 L 529 996.5 L 531 986.5 L 531 973.5 L 528 961.5 L 524 953.5 L 514.5 943 L 503.5 938 L 490.5 938 Q 480.2 941.7 473.5 949 Q 471.2 951.7 465.5 951 L 460 946.5 L 458 940.5 L 458 827.5 L 461.5 822 L 463.5 821 Z " /><path fill="rgb(255,255,255)" stroke="rgb(255,255,255)" stroke-width="0" opacity="1" d="M 800.5 821 L 1123.5 821 L 1128 823.5 L 1129 825.5 L 1129 853.5 L 1128 854.5 L 1128 871.5 L 1127 872.5 L 1127 887.5 L 1126 888.5 L 1126 900.5 L 1125 901.5 L 1123 942.5 L 1125 950.5 L 1129.5 957 L 1132.5 959 L 1141.5 960 L 1148.5 957 L 1161.5 948 Q 1166.1 945.1 1174.5 946 Q 1186.1 948.9 1192 957.5 Q 1197.7 964.3 1200 974.5 L 1201 990.5 L 1197 1006.5 Q 1193.3 1015.3 1186.5 1021 Q 1180.6 1027.1 1168.5 1027 Q 1155.1 1023.9 1147.5 1015 L 1141.5 1013 L 1136.5 1013 Q 1130 1014.5 1127 1019.5 L 1125 1024.5 L 1124 1037.5 L 1125 1038.5 L 1125 1063.5 L 1126 1064.5 L 1126 1101.5 L 1125 1102.5 L 1124 1133.5 L 1123 1137.5 L 1119.5 1141 L 1110.5 1143 L 1070.5 1146 L 1069.5 1147 L 1061.5 1147 L 1060.5 1148 L 1043.5 1149 L 1033.5 1151 L 1008.5 1152 Q 1007.2 1149.7 1002.5 1151 L 994 1145.5 L 992 1138.5 L 997 1127.5 L 997 1117.5 Q 994.9 1107.6 987.5 1103 Q 976.9 1092.6 953.5 1095 Q 937.5 1098 929 1108.5 L 924 1118.5 L 924 1128.5 Q 927.9 1132.6 927 1141.5 L 923.5 1146 L 916.5 1149 L 900.5 1149 L 899.5 1148 L 866.5 1146 L 865.5 1145 L 800.5 1144 L 797 1141.5 L 795 1137.5 L 795 827.5 L 798.5 822 L 800.5 821 Z " /><path fill="rgb(47,104,201)" stroke="rgb(47,104,201)" stroke-width="0" opacity="1" d="M 620.5 416 L 633.5 417 L 646 424 L 653 435.5 L 655 442.5 L 655 448.5 Q 652.3 462.3 644 470.5 L 643 482.5 L 647.5 491 L 658.5 497 L 781.5 497 L 786 499 L 788 503.5 L 788 533.5 L 787 534.5 L 787 615.5 Q 788.5 624 794.5 628 Q 798.5 631 805.5 631 L 812.5 629 L 828.5 617 Q 833.2 614.8 841.5 616 Q 850.1 617.9 855 623.5 Q 861.1 629.9 864 639.5 Q 866.7 647.8 865 660.5 Q 861.5 676 850.5 684 L 844.5 687 L 830.5 687 L 822.5 683 L 811.5 674 L 799.5 673 L 790 679.5 L 787 686.5 L 787 777.5 L 788 778.5 L 788 808.5 L 784.5 813 L 782.5 814 L 655.5 814 Q 648.1 816.6 644 822.5 L 642 828.5 L 642 833.5 L 644 840.5 L 652 852.5 L 655 862.5 L 655 869.5 Q 652.1 884.1 641.5 891 L 632.5 895 L 621.5 896 L 609.5 893 L 598 884.5 Q 591 877.5 591 863.5 L 593 855.5 L 604 837.5 L 605 827.5 L 599.5 818 L 591.5 814 L 463.5 814 L 459 812 L 458 809.5 L 458 685.5 L 451.5 676 Q 447.3 671.7 437.5 673 L 430.5 676 L 416.5 686 Q 411.9 688.9 403.5 688 Q 393.3 686.3 388 679.5 Q 377.5 670 378 649.5 L 382 633.5 L 391.5 621 Q 397.6 615.1 410.5 616 L 420.5 620 L 433.5 629 Q 438.2 631.2 446.5 630 L 454 626 L 458 617.5 L 458 504.5 L 462.5 498 L 464.5 497 L 589.5 497 Q 598.5 494.5 603 487.5 L 605 481.5 L 605 475.5 L 601 465.5 L 593 453.5 L 592 445.5 Q 594.5 444 593 438.5 L 597 429.5 L 604.5 422 L 614.5 417 Q 619.3 418.3 620.5 416 Z " /></svg>

